M48
;GenerationSoftware,Autodesk,EAGLE,9.6.2*%
;CreationDate,2021-02-20T10:09:19Z*%
FMAT,2
ICI,OFF
METRIC,TZ,000.000
T7C0.300
T6C0.400
T5C0.650
T4C1.016
T3C2.311
T2C3.302
T1C4.001
%
G90
M71
T1
X87630Y20574
X80010Y46482
X52070Y124206
X123190Y124206
X87630Y46482
X115570Y20574
X52070Y46482
X123190Y72390
X16510Y20574
X8890Y20574
X123190Y46482
X80010Y124206
X123190Y20574
X80010Y20574
X44450Y124206
X52070Y20574
X16510Y46482
X44450Y46482
X115570Y124206
X8890Y46482
X87630Y124206
X8890Y124206
X16510Y124206
X123190Y98298
X80010Y98298
X87630Y98298
X44450Y98298
X52070Y98298
X8890Y98298
X16510Y98298
X115570Y72390
X115570Y98298
X80010Y72390
X87630Y72390
X44450Y72390
X52070Y72390
X8890Y72390
X16510Y72390
X44450Y20574
X115570Y46482
T2
X2540Y48768
X93980Y74676
X73660Y74676
X22860Y22860
X2540Y22860
X129540Y74676
X109220Y74676
X58420Y22860
X38100Y22860
X22860Y100584
X2540Y100584
X73660Y22860
X129540Y22860
X58420Y100584
X38100Y100584
X109220Y22860
X22860Y48768
X93980Y100584
X73660Y100584
X93980Y22860
X58420Y48768
X129540Y100584
X109220Y100584
X38100Y48768
X93980Y48768
X22860Y126492
X2540Y126492
X73660Y48768
X129540Y48768
X109220Y48768
X22860Y74676
X2540Y74676
X38100Y126492
X93980Y126492
X73660Y126492
X58420Y74676
X38100Y74676
X129540Y126492
X109220Y126492
X58420Y126492
T3
X129540Y107226
X22860Y81318
X58420Y94450
X58420Y81318
X93980Y94450
X93980Y81318
X129540Y94450
X129540Y81318
X22860Y120358
X22860Y107226
X58420Y120358
X58420Y107226
X93980Y120358
X93980Y107226
X58420Y3594
X129540Y16726
X129540Y3594
X22860Y16726
X22860Y3594
X58420Y16726
X129540Y120358
X58420Y29502
X93980Y16726
X93980Y3594
X58420Y42634
X22860Y42634
X22860Y29502
X93980Y42634
X93980Y29502
X129540Y42634
X129540Y29502
X22860Y68542
X22860Y55410
X58420Y68542
X58420Y55410
X93980Y68542
X93980Y55410
X129540Y68542
X129540Y55410
X22860Y94450
T4
X49530Y42418
X118110Y68326
X49530Y16510
X85090Y94234
X82550Y94234
X13970Y42418
X120650Y94234
X118110Y94234
X118110Y42418
X13970Y120142
X120650Y42418
X11430Y120142
X85090Y120142
X82550Y16510
X120650Y16510
X118110Y16510
X49530Y68326
X46990Y68326
X49530Y120142
X46990Y120142
X46990Y42418
X11430Y16510
X85090Y68326
X82550Y68326
X13970Y68326
X82550Y120142
X11430Y42418
X85090Y16510
X120650Y68326
X11430Y68326
X46990Y94234
X46990Y16510
X85090Y42418
X13970Y94234
X11430Y94234
X120650Y120142
X118110Y120142
X82550Y42418
X13970Y16510
X49530Y94234
T5
X4905Y7270
X40465Y13050
X40465Y7270
X76025Y13050
X76025Y7270
X111585Y13050
X111585Y7270
X4905Y38958
X4905Y33178
X40465Y33178
X76025Y38958
X40465Y116682
X4905Y64866
X4905Y110902
X40465Y38958
X4905Y116682
X111585Y84994
X111585Y90774
X76025Y90774
X40465Y84994
X76025Y64866
X76025Y110902
X4905Y84994
X111585Y110902
X111585Y64866
X40465Y59086
X40465Y64866
X4905Y90774
X76025Y116682
X4905Y13050
X111585Y116682
X4905Y59086
X111585Y33178
X111585Y59086
X40465Y110902
X40465Y90774
X76025Y84994
X111585Y38958
X76025Y33178
X76025Y59086
T6
X76555Y5842
X76555Y14478
X107935Y40386
X107935Y31750
X1255Y92202
X1255Y83566
X5435Y83566
X5435Y92202
X112115Y31750
X112115Y40386
X107935Y14478
X107935Y5842
X112115Y5842
X112115Y14478
X36815Y92202
X36815Y83566
X40995Y83566
X40995Y92202
X1255Y40386
X1255Y31750
X1255Y66294
X1255Y57658
X5435Y57658
X5435Y66294
X72375Y92202
X72375Y83566
X76555Y83566
X76555Y92202
X5435Y31750
X5435Y40386
X36815Y40386
X36815Y31750
X40995Y31750
X40995Y40386
X107935Y92202
X107935Y83566
X112115Y83566
X112115Y92202
X36815Y66294
X36815Y57658
X40995Y57658
X40995Y66294
X72375Y14478
X1255Y14478
X1255Y118110
X1255Y109474
X5435Y109474
X5435Y118110
X1255Y5842
X5435Y5842
X5435Y14478
X72375Y40386
X72375Y66294
X72375Y57658
X36815Y118110
X36815Y109474
X40995Y109474
X40995Y118110
X76555Y57658
X76555Y66294
X72375Y31750
X76555Y31750
X76555Y40386
X36815Y14478
X72375Y118110
X72375Y109474
X76555Y109474
X76555Y118110
X36815Y5842
X107935Y66294
X107935Y57658
X112115Y57658
X112115Y66294
X40995Y5842
X107935Y118110
X107935Y109474
X112115Y109474
X112115Y118110
X40995Y14478
X72375Y5842
T7
X54610Y80264
X54610Y82804
X55880Y95504
X40132Y80264
X40259Y81661
X43305Y81532
X56261Y87376
X42799Y87503
X56261Y88392
X40386Y87630
X43180Y91694
X40386Y89154
X43561Y84074
X40386Y86106
X83566Y84074
X83566Y91694
X91821Y91440
X87630Y91440
X74930Y90805
X74930Y84963
X74930Y94234
X90170Y80264
X90170Y82804
X91440Y95504
X75692Y80264
X75819Y81661
X78865Y81532
X91821Y87376
X78359Y87503
X91821Y88392
X75946Y87630
X78740Y91694
X75946Y89154
X79121Y84074
X75946Y86106
X119126Y84074
X119126Y91694
X127381Y91440
X123190Y91440
X110490Y90805
X110490Y84963
X110490Y94234
X125730Y80264
X125730Y82804
X127000Y95504
X111252Y80264
X111379Y81661
X114425Y81532
X127381Y87376
X113919Y87503
X127381Y88392
X111506Y87630
X114300Y91694
X111506Y89154
X114681Y84074
X111506Y86106
X12446Y109982
X12446Y117602
X20701Y117348
X16510Y117348
X3810Y116713
X3810Y110871
X3810Y120142
X19050Y106172
X19050Y108712
X20320Y121412
X4572Y106172
X4699Y107569
X7745Y107440
X20701Y113284
X16510Y39624
X20701Y114300
X4826Y113538
X7620Y117602
X4826Y115062
X8001Y109982
X4826Y112014
X48006Y109982
X48006Y117602
X56261Y117348
X52070Y117348
X39370Y116713
X39370Y110871
X39370Y120142
X54610Y106172
X54610Y108712
X55880Y121412
X40132Y106172
X40259Y107569
X43305Y107440
X56261Y113284
X42799Y113411
X56261Y114300
X40386Y113538
X43180Y117602
X40386Y115062
X43561Y109982
X40386Y112014
X83566Y109982
X83566Y117602
X91821Y117348
X87630Y117348
X74930Y116713
X74930Y110871
X74930Y120142
X90170Y106172
X90170Y108712
X91440Y121412
X75692Y106172
X75819Y107569
X78865Y107440
X91821Y113284
X78359Y113411
X91821Y114300
X75946Y113538
X78740Y117602
X75946Y115062
X79121Y109982
X75946Y112014
X119126Y109982
X119126Y117602
X127381Y117348
X123190Y117348
X110490Y116713
X110490Y110871
X110490Y120142
X125730Y106172
X125730Y108712
X127000Y121412
X111252Y106172
X111379Y107569
X114425Y107440
X127381Y113284
X113919Y113411
X127381Y114300
X111506Y113538
X114300Y117602
X111506Y115062
X114681Y109982
X111506Y112014
X12446Y6350
X12446Y13970
X20701Y13716
X16510Y13716
X3810Y13081
X3810Y7239
X3810Y16510
X19050Y2540
X19050Y5080
X20320Y17780
X4572Y2540
X4699Y3937
X7745Y3808
X20701Y9652
X7239Y9779
X20701Y10668
X4826Y9906
X7239Y113411
X7620Y13970
X4826Y11430
X8001Y6350
X4826Y8382
X48006Y6350
X48006Y13970
X56261Y13716
X52070Y13716
X39370Y13081
X39370Y7239
X39370Y16510
X54610Y2540
X54610Y5080
X55880Y17780
X40132Y2540
X40259Y3937
X43305Y3808
X56261Y9652
X42799Y9779
X56261Y10668
X40386Y9906
X43180Y13970
X40386Y11430
X43561Y6350
X40386Y8382
X83566Y6350
X83566Y13970
X91821Y13716
X87630Y13716
X74930Y13081
X74930Y7239
X74930Y16510
X90170Y2540
X90170Y5080
X91440Y17780
X75692Y2540
X75819Y3937
X78865Y3808
X91821Y9652
X78359Y9779
X91821Y10668
X75946Y9906
X78740Y13970
X75946Y11430
X79121Y6350
X75946Y8382
X119126Y6350
X119126Y13970
X127381Y13716
X123190Y13716
X110490Y13081
X110490Y7239
X110490Y16510
X125730Y2540
X125730Y5080
X127000Y17780
X111252Y2540
X111379Y3937
X114425Y3808
X127381Y9652
X113919Y9779
X127381Y10668
X111506Y9906
X114300Y13970
X111506Y11430
X114681Y6350
X111506Y8382
X12446Y32258
X12446Y39878
X20701Y39624
X3810Y38989
X3810Y33147
X3810Y42418
X19050Y28448
X19050Y30988
X20320Y43688
X4572Y28448
X4699Y29845
X7745Y29716
X20701Y35560
X7239Y35687
X20701Y36576
X4826Y35814
X7620Y39878
X4826Y37338
X8001Y32258
X4826Y34290
X48006Y32258
X48006Y39878
X56261Y39624
X52070Y39624
X39370Y38989
X39370Y33147
X39370Y42418
X54610Y28448
X54610Y30988
X55880Y43688
X40132Y28448
X40259Y29845
X43305Y29716
X56261Y35560
X42799Y35687
X56261Y36576
X40386Y35814
X43180Y39878
X40386Y37338
X43561Y32258
X40386Y34290
X83566Y32258
X83566Y39878
X91821Y39624
X87630Y39624
X74930Y38989
X74930Y33147
X74930Y42418
X90170Y28448
X90170Y30988
X91440Y43688
X75692Y28448
X75819Y29845
X78865Y29716
X91821Y35560
X78359Y35687
X91821Y36576
X75946Y35814
X78740Y39878
X75946Y37338
X79121Y32258
X75946Y34290
X119126Y32258
X119126Y39878
X127381Y39624
X123190Y39624
X110490Y38989
X110490Y33147
X110490Y42418
X125730Y28448
X125730Y30988
X127000Y43688
X111252Y28448
X111379Y29845
X114425Y29716
X127381Y35560
X113919Y35687
X127381Y36576
X111506Y35814
X114300Y39878
X111506Y37338
X114681Y32258
X111506Y34290
X12446Y58166
X12446Y65786
X20701Y65532
X16510Y65532
X3810Y64897
X3810Y59055
X3810Y68326
X19050Y54356
X19050Y56896
X20320Y69596
X4572Y54356
X4699Y55753
X7745Y55624
X20701Y61468
X7239Y61595
X20701Y62484
X4826Y61722
X7620Y65786
X4826Y63246
X8001Y58166
X4826Y60198
X48006Y58166
X48006Y65786
X56261Y65532
X4699Y81661
X52070Y65532
X39370Y64897
X39370Y59055
X39370Y68326
X54610Y54356
X54610Y56896
X55880Y69596
X40132Y54356
X40259Y55753
X43305Y55624
X56261Y61468
X42799Y61595
X56261Y62484
X40386Y61722
X43180Y65786
X40386Y63246
X43561Y58166
X40386Y60198
X83566Y58166
X83566Y65786
X91821Y65532
X87630Y65532
X74930Y64897
X74930Y59055
X74930Y68326
X90170Y54356
X90170Y56896
X91440Y69596
X75692Y54356
X75819Y55753
X78865Y55624
X91821Y61468
X78359Y61595
X91821Y62484
X75946Y61722
X78740Y65786
X75946Y63246
X79121Y58166
X75946Y60198
X119126Y58166
X119126Y65786
X127381Y65532
X123190Y65532
X110490Y64897
X110490Y59055
X110490Y68326
X125730Y54356
X125730Y56896
X127000Y69596
X111252Y54356
X111379Y55753
X114425Y55624
X127381Y61468
X113919Y61595
X127381Y62484
X111506Y61722
X114300Y65786
X111506Y63246
X114681Y58166
X111506Y60198
X12446Y84074
X12446Y91694
X20701Y91440
X16510Y91440
X3810Y90805
X3810Y84963
X3810Y94234
X19050Y80264
X19050Y82804
X20320Y95504
X4572Y80264
X7745Y81532
X20701Y87376
X7239Y87503
X20701Y88392
X4826Y87630
X7620Y91694
X4826Y89154
X8001Y84074
X4826Y86106
X48006Y84074
X48006Y91694
X56261Y91440
X52070Y91440
X39370Y90805
X39370Y84963
X39370Y94234
M30